<?xml version="1.0" standalone="no"?>
<!DOCTYPE svg PUBLIC "-//W3C//DTD SVG 1.1//EN" "http://www.w3.org/Graphics/SVG/1.1/DTD/svg11.dtd" >
<svg xmlns="http://www.w3.org/2000/svg">
<metadata>Generated by IcoMoon</metadata>
<defs>
<font id="icomoon" horiz-adv-x="1024">
<font-face units-per-em="1024" ascent="960" descent="-64" />
<missing-glyph horiz-adv-x="1024" />
<glyph unicode="&#x20;" horiz-adv-x="512" d="" />
<glyph unicode="&#xe900;" glyph-name="add" d="M512.001 806.406c28.277 0 51.2-22.923 51.2-51.2v-614.4c0-28.277-22.923-51.2-51.2-51.2s-51.2 22.923-51.2 51.2v614.4c0 28.277 22.923 51.2 51.2 51.2zM204.801 499.219h614.4c28.277 0 51.2-22.923 51.2-51.2s-22.923-51.2-51.2-51.2h-614.4c-28.277 0-51.2 22.923-51.2 51.2s22.923 51.2 51.2 51.2z" />
<glyph unicode="&#xe901;" glyph-name="admin-management" d="M451.921 771.702c-68.906-37.758-82.404-44.204-104.044-49.68-23.062-5.836-39.696-7.109-92.943-7.114l-50.135-0.005v-153.087c0-165.19 0.217-170.351 8.565-204.568 20.332-83.333 75.748-155.674 150.919-197.002 13.308-7.316 150.757-70.646 153.328-70.646 2.314 0 119.429 53.509 143.534 65.577 84.224 42.179 142.546 118.502 163.732 214.277l4.285 19.374 1.065 326.075-50.196 0.005c-53.524 0.005-70.216 1.292-92.872 7.161-22.047 5.713-34.647 11.715-103.634 49.375-35.308 19.274-65.152 35.004-66.319 34.956s-30.547-15.663-65.286-34.698zM540.81 657.174c6.922-1.402 18.299-5.449 26.383-9.388 25.902-12.618 41.042-27.757 53.688-53.68 35.942-73.688-14.884-159.761-97.172-164.554-37.054-2.161-75.172 15.14-97.090 44.058-15.347 20.251-24.439 46.574-24.439 70.755 0 34.253 17.81 70.593 44.515 90.832 27.319 20.703 61.255 28.626 94.114 21.976zM507.613 607.293c-33.893-4.579-59.426-39.164-53.547-72.532 4.974-28.235 25.195-48.591 53.501-53.855 26.398-4.909 56.304 10.885 67.685 35.746 6.267 13.686 7.695 25.467 4.808 39.63-7.076 34.699-37.038 55.796-72.447 51.011zM594.038 387.507c18.36-5.146 32.123-13.363 46.638-27.853 10.214-10.204 14.879-16.323 19.272-25.303 6.349-12.959 10.614-28.611 10.65-39.081l0.020-6.712-12.237-0.005c-6.728-0.005-17.992-0.461-25.032-1.009l-12.795-0.993-1.039 7.716c-2.345 17.444-15.852 34.842-31.841 41.006-7.265 2.801-12.539 3.026-71.009 3.026h-63.164l-8.685-4.127c-15.481-7.352-26.89-22.472-29.353-38.892l-1.007-6.723h-51.45l0.749 6.712c3.101 27.791 12.586 47.913 31.084 65.925 15.712 15.304 35.219 24.97 57.133 28.308 5.184 0.788 37.138 1.26 71.007 1.050 52.060-0.328 63.048-0.799 71.060-3.046z" />
<glyph unicode="&#xe902;" glyph-name="agent-management" d="M465.661 804.701c-63.105-6.274-132.941-39.068-178.717-83.92-42.702-41.843-69.734-97.698-79.712-164.711-4.145-27.829-2.809-81.239 2.623-104.971 8.429-36.818 18.473-56.612 49.007-96.574 36.504-47.78 46.975-65.459 55.886-94.372 6.713-21.78 8.546-43.648 8.546-101.929 0-56.786 0.345-58.716 11.686-65.219 5.741-3.292 10.268-3.405 135.812-3.405 125.464 0 130.072 0.118 135.801 3.4 11.93 6.835 12.529 9.088 13.553 50.673 1.362 55.322-1.848 52.823 69.576 54.083 47.334 0.835 50.519 1.101 57.871 4.787 9.216 4.618 16.077 12.621 19.087 22.246 1.741 5.565 1.603 10.885-0.681 26.22-1.572 10.583-2.365 21.181-1.751 23.552 0.604 2.371 4.332 7.987 8.279 12.472 11.003 12.518 9.467 19.359-6.835 30.449l-5.468 3.722 6.282 3.256c12.851 6.666 21.54 13.839 22.006 18.161 0.251 2.36-3.645 13.317-8.658 24.351l-9.114 20.060 10.23 5.238c30.131 15.421 38.589 22.707 38.221 32.922-0.108 3-5.663 16.056-12.339 29.008-16.922 32.829-19.584 42.888-21.699 81.994-2.094 38.694-4.198 54.709-10.102 76.948-16.102 60.618-52.623 107.987-110.628 143.486-41.19 25.207-66.775 29.179-97.321 15.108-19.814-9.127-36.388-29.394-44.155-53.99-2.468-7.819-2.985-18.794-2.975-62.803l0.020-53.327 13.578-3.876c28.575-8.154 57.482-31.838 71.537-58.605 10.65-20.287 13.742-34.373 12.692-57.893-0.988-22.256-5.519-37.105-16.42-53.842l-6.979-10.706 39.557-36.152c24.54-22.42 40.023-37.888 40.786-40.735 2.77-10.388-5.934-21.678-16.717-21.678-2.698 0-31.683 12.646-64.399 28.109l-59.484 28.119-13.64-2.821c-17.065-3.528-40.47-3.574-56.207-0.113-6.633 1.454-19.156 5.924-27.83 9.928-21.208 9.784-44.157 30.981-54.331 50.171-20.688 39.024-18.505 83.938 5.777 118.858 15.19 21.842 41.225 40.826 65.716 47.912l10.668 3.088v54.709c0 59.362 1.297 70.663 10.614 92.552 4.998 11.738 19.878 34.404 25.366 38.642 1.776 1.369 4.438 4.692 5.918 7.385 2.462 4.478 2.373 5.195-1.050 8.414-4.15 3.902-12.926 4.264-39.485 1.623zM479.363 548.183c-12.934-2.020-30.073-10.68-38.503-19.455-3.67-3.821-8.859-11.357-11.533-16.749-4.102-8.276-4.865-12.257-4.889-25.542-0.028-14.251 0.538-16.823 5.983-27.224 7.252-13.854 20.538-26.106 35.327-32.583 9.002-3.948 13.137-4.654 27.306-4.669 14.844-0.015 18.035 0.579 28.755 5.371 15.324 6.851 26.849 17.684 34.15 32.101 5.1 10.073 5.74 13.094 5.74 27.041 0 13.319-0.742 17.189-4.884 25.505-9.754 19.554-25.196 31.166-47.315 35.573-14.158 2.821-15.885 2.857-30.138 0.632z" />
<glyph unicode="&#xe903;" glyph-name="alert" d="M476.475 802.72c-22.458-8.626-36.98-17.772-50.12-31.567-12.709-13.349-302.351-496.967-317.214-529.669-5.074-11.156-6.642-21.33-6.735-43.643-0.106-26.117 0.926-31.314 10.081-50.76 12.513-26.573 32.224-46.956 57.456-59.423l19.107-9.436h645.899l19.108 9.436c25.231 12.467 44.943 32.85 57.457 59.423 9.155 19.446 10.184 24.643 10.081 50.76-0.097 22.313-1.664 32.486-6.738 43.643-3.635 8.003-73.492 127.299-155.238 265.105-101.12 170.471-153.293 255.388-163.226 265.672-21.54 22.31-47.073 33.015-81.178 34.030-17.142 0.511-31.57-0.818-38.74-3.572zM534.579 652.031c8.161-4.19 14.991-11.057 19.154-19.272 6.098-12.027 6.467-18.9 6.467-119.895 0-118.477-0.553-122.163-20.48-136.468-7.465-5.356-14.582-7.209-27.72-7.209-13.136 0-20.254 1.853-27.722 7.209-19.927 14.305-20.479 17.992-20.479 136.468 0 100.953 0.373 107.871 6.462 119.882 11.877 23.419 39.895 31.819 64.318 19.284zM548.526 308.188c7.557-4.46 17.971-14.249 23.148-21.765 8.53-12.385 9.416-16.148 9.416-40.049 0-23.378-1.009-27.904-8.868-39.849-4.874-7.414-14.889-17.49-22.257-22.395-11.689-7.782-16.522-8.919-37.965-8.919s-26.276 1.137-37.963 8.919c-7.369 4.905-17.385 14.981-22.26 22.395-7.86 11.945-8.866 16.471-8.866 39.849 0 23.818 0.9 27.689 9.284 39.859 9.492 13.778 24.108 24.735 39.767 29.814 14.592 4.736 41.563 0.983 56.565-7.859z" />
<glyph unicode="&#xe904;" glyph-name="Breadcrumb-Arrow" d="M350.059 737.941c18.745 18.745 49.137 18.745 67.882 0l256-256c9.002-9.002 14.059-21.211 14.059-33.941s-5.057-24.94-14.059-33.941l-256-255.998c-18.745-18.746-49.137-18.746-67.882 0s-18.745 49.133 0 67.878l222.059 222.061-222.059 222.059c-18.745 18.745-18.745 49.137 0 67.882z" />
<glyph unicode="&#xe905;" glyph-name="client-management" d="M474.281 795.115c-62.204-14.211-114.067-60.853-132.83-119.455-7.886-24.633-9.684-68.299-3.889-94.355 13.954-62.724 61.936-113.027 126.413-132.527 22.039-6.666 71.455-6.655 93.655 0.019 57.477 17.286 104.76 62.464 122.373 116.927 8.806 27.233 9.912 73.253 2.427 100.55-16.804 61.247-61.573 106.878-123.464 125.837-20.142 6.17-64.016 7.728-84.685 3.004zM353.105 424.842c-51.257-13.793-95.031-43.776-125.32-85.837-17.318-24.049-25.437-42.844-22.339-51.727 4.366-12.524 35.778-51.784 60.451-75.556 149.129-143.672 390.091-128.195 519.801 33.382 9.605 11.965 21.069 28.022 25.482 35.686l8.018 13.932-7.137 14.213c-17.879 35.594-50.248 70.6-83.63 90.435-28.498 16.932-60.073 27.674-82.35 28.022-17.126 0.266-19.886-0.486-31.57-8.602-59.228-41.119-147.094-40.883-208.633 0.558-16.26 10.952-27.976 12.17-52.774 5.494z" />
<glyph unicode="&#xe906;" glyph-name="AEPS" d="M339.2 823.973c69.956 28.299 145.792 38.984 220.846 31.116 75.049-7.868 147.021-34.047 209.587-76.239s113.812-99.103 149.238-165.734c35.425-66.631 53.944-140.943 53.929-216.408 0-13.578-5.396-26.598-14.996-36.204-9.6-9.6-22.625-14.996-36.204-14.996s-26.604 5.396-36.204 14.996c-9.6 9.605-14.996 22.625-14.996 36.204 0.026 58.701-14.372 116.508-41.917 168.342-27.551 51.834-67.405 96.109-116.070 128.933s-104.648 53.193-163.026 59.316c-58.38 6.123-117.37-2.187-171.786-24.199-6.274-2.77-13.040-4.251-19.897-4.356s-13.666 1.169-20.021 3.746c-6.355 2.577-12.128 6.405-16.976 11.255s-8.672 10.627-11.245 16.984c-2.573 6.357-3.843 13.166-3.734 20.023s1.595 13.623 4.368 19.895c2.774 6.272 6.78 11.923 11.78 16.617s10.892 8.336 17.326 10.71zM238.695 706.008c10.173-8.985 16.362-21.642 17.208-35.189s-3.724-26.875-12.702-37.054c-57.863-65.395-89.741-149.736-89.6-237.057 0-13.578-5.394-26.598-14.996-36.204-9.602-9.6-22.625-14.996-36.204-14.996s-26.602 5.396-36.204 14.996c-9.602 9.605-14.996 22.625-14.996 36.204-0.143 112.264 40.839 220.691 115.2 304.795 4.449 5.045 9.85 9.164 15.892 12.121s12.607 4.695 19.321 5.113c6.714 0.418 13.445-0.49 19.807-2.674s12.233-5.6 17.274-10.054zM255.994 396.698c0 67.898 26.971 133.012 74.98 181.022s113.124 74.981 181.020 74.981c67.897 0 133.008-26.972 181.018-74.981s74.982-113.124 74.982-181.022c0-13.578-5.396-26.598-14.996-36.204-9.6-9.6-22.625-14.996-36.204-14.996s-26.604 5.396-36.204 14.996c-9.605 9.605-14.996 22.625-14.996 36.204 0 40.74-16.184 79.809-44.989 108.614s-67.876 44.988-108.611 44.988c-40.737 0-79.806-16.183-108.612-44.988s-44.988-67.874-44.988-108.614c0-85.862-17.664-167.731-49.562-242.12-5.357-12.483-15.452-22.323-28.064-27.356-12.612-5.038-26.708-4.859-39.187 0.502-12.479 5.356-22.319 15.447-27.356 28.063-5.036 12.611-4.856 26.706 0.501 39.188 27.324 63.739 41.366 132.378 41.267 201.723zM712.75 293.683c6.646-1.050 13.015-3.405 18.749-6.917 5.734-3.517 10.721-8.131 14.674-13.573 3.948-5.448 6.789-11.617 8.356-18.161 1.567-6.538 1.828-13.327 0.768-19.968-6.676-42.122-15.995-83.779-27.904-124.723-1.751-6.6-4.803-12.78-8.975-18.181s-9.385-9.917-15.324-13.271c-5.944-3.359-12.498-5.499-19.277-6.287s-13.65-0.21-20.204 1.695c-6.554 1.905-12.662 5.1-17.961 9.4-5.304 4.301-9.692 9.615-12.908 15.636-3.215 6.016-5.197 12.621-5.827 19.415-0.625 6.799 0.113 13.655 2.171 20.163 10.598 36.506 18.995 73.979 25.088 112.225 2.14 13.399 9.508 25.405 20.49 33.372s24.678 11.249 38.083 9.124v0.051zM512.005 447.898c13.578 0 26.604-5.391 36.204-14.991 9.605-9.605 14.996-22.625 14.996-36.209 0-114.483-23.552-223.642-66.047-322.765-2.653-6.175-6.496-11.771-11.311-16.466s-10.508-8.392-16.753-10.885c-6.245-2.493-12.92-3.732-19.643-3.651-6.724 0.087-13.365 1.495-19.544 4.147-6.179 2.657-11.775 6.497-16.469 11.315-4.694 4.813-8.393 10.506-10.886 16.753-2.494 6.241-3.733 12.918-3.647 19.64 0.086 6.728 1.496 13.368 4.148 19.543 38.236 89.221 57.887 185.303 57.754 282.368 0 13.583 5.394 26.604 14.996 36.209 9.602 9.6 22.625 14.991 36.204 14.991z" />
<glyph unicode="&#xe907;" glyph-name="commission-management" d="M128 625.86c0-101.765 68.435-154.94 158.733-154.94s157.782 53.175 157.782 154.94c0 101.765-67.485 154.94-157.782 154.94s-158.733-53.175-158.733-154.94zM285.782 689.12c28.515 0 46.575-19.253 46.575-63.26 0-43.090-18.060-62.343-46.575-62.343s-45.624 19.253-45.624 62.343c0 44.006 17.109 63.26 45.624 63.26zM308.365 227.144c-25.782-45.476 7.066-101.857 59.341-101.857v0c24.561 0 47.226 13.204 59.34 34.57l288.587 509c25.784 45.474-7.066 101.859-59.336 101.859v0c-24.566 0-47.227-13.204-59.341-34.57l-288.591-509.001zM580.434 270.141c0-101.765 67.487-154.941 157.783-154.941s157.783 53.176 157.783 154.941c0 102.682-67.487 154.936-157.783 154.936s-157.783-52.255-157.783-154.936zM737.27 333.399c28.513 0 46.572-20.168 46.572-63.258s-18.058-62.346-46.572-62.346c-28.518 0-45.624 19.256-45.624 62.346s17.106 63.258 45.624 63.258z" />
<glyph unicode="&#xe908;" glyph-name="commission-report" d="M205.874 769.491c-0.956-5.326-1.347-165.476-0.871-355.887 0.86-344.305 0.899-346.255 7.064-354.509 3.409-4.567 9.931-11.090 14.497-14.495 8.233-6.149 10.413-6.2 266.365-6.2s258.135 0.051 266.367 6.2c4.562 3.405 11.085 9.928 14.495 14.495 6.129 8.207 6.205 11.126 6.999 257.454l0.804 249.159-209.49 1.725-11.346 8.663c-19.395 14.795-19.738 17.049-19.738 129.511v100.793l-149.54-0.117c-117.523-0.093-151.505-0.974-158.71-4.112-12.096-5.266-24.736-20.623-26.897-32.68zM589.117 614.024h193.843l-96.154 96.188c-52.884 52.903-96.497 96.188-96.922 96.188s-0.768-43.284-0.768-96.188v-96.188zM371.382 332.339c-48.158 0-84.657 28.636-84.657 83.43 0 54.798 36.499 83.43 84.657 83.43s84.151-28.633 84.151-83.43c0-54.794-35.992-83.43-84.151-83.43zM395.715 415.77c0-23.199-9.632-33.567-24.84-33.567s-24.332 10.368-24.332 33.567c0 23.695 9.124 34.064 24.332 34.064s24.84-10.369 24.84-34.064zM435.762 146.232h-83.643l195.168 347.537h83.645l-195.17-347.537zM612.173 140.8c-48.159 0-84.147 28.631-84.147 83.43 0 55.291 35.988 83.43 84.147 83.43s84.152-28.14 84.152-83.43c0-54.799-35.994-83.43-84.152-83.43zM636.508 224.23c0-23.204-9.631-33.572-24.842-33.572-15.206 0-24.33 10.368-24.33 33.572 0 23.199 9.124 34.063 24.33 34.063 15.212 0 24.842-10.865 24.842-34.063z" />
<glyph unicode="&#xe909;" glyph-name="complaint" d="M242.988 769.471c8.853 16.73 26.171 30.064 45.712 35.191 6.104 1.601 46.565 1.947 191.032 1.633 199.375-0.435 193.467-0.196 242.655-9.807 29.138-5.694 48.328-11.327 101.115-29.684l46.899-16.306v-335.009l-37.432-20.378c-45.353-24.689-57.861-32.384-77.435-47.606-19.297-15.017-25.907-21.427-96.195-93.322-65.485-66.985-71.030-73.114-78.454-86.723-11.054-20.27-7.88 1.659-12.447-65.828 1.766-74.982-77.377-65.316-98.181-59.039s-52.871 37.934-50.025 81.772c3.618 55.721 20.664 108.39 50.025 154.563 5.366 8.438 9.357 15.718 8.866 16.169-0.49 0.456-14.3 0.031-30.689-0.932-57.704-3.405-186.573-8.412-200.257-7.777-32.797 1.516-58.661 22.912-64.833 53.632-3.956 19.692 3.733 41.764 19.653 56.407 8.483 7.808 25.126 16.783 31.966 17.239 1.632 0.108-4.968 1.085-14.665 2.166-13.317 1.49-20.303 3.185-28.551 6.943-13.398 6.108-27.12 19.087-33.508 31.705-4.158 8.211-4.64 10.984-4.64 26.685 0 16.758 0.257 17.993 5.869 28.346 6.957 12.83 19.725 24.35 34.148 30.808 8.743 3.914 12.293 4.503 30.544 5.071l20.652 0.644-9.813 2.811c-20.666 5.918-35.556 17.869-44.633 35.817-16.689 33.009-0.226 71.36 37.385 87.091 7.466 3.122 12.085 3.616 39.434 4.224 30.689 0.682 30.89 0.711 21.513 2.95-19.677 4.699-34.82 16.322-45.331 34.794-5.191 9.121-5.438 10.393-5.438 27.875 0 17.037 0.353 18.985 5.058 27.875z" />
<glyph unicode="&#xe90a;" glyph-name="dashboard" d="M512 797.875c-78.087 0.090-154.568-22.17-220.412-64.148s-118.299-101.922-151.17-172.753c-32.872-70.831-44.787-149.592-34.339-226.975s42.825-150.159 93.304-209.736l7.443-8.684h610.346l7.444 8.684c50.478 59.576 82.857 132.352 93.302 209.736 10.45 77.384-1.464 156.145-34.335 226.975-32.876 70.831-85.33 130.776-151.173 172.753s-142.326 64.238-220.411 64.148v0zM725.371 562.668l-146.877-144.149c7.506-15.872 9.16-33.889 4.675-50.862-4.49-16.973-14.838-31.811-29.21-41.897s-31.841-14.761-49.332-13.21c-17.488 1.551-33.865 9.236-46.236 21.693s-19.939 28.887-21.368 46.387c-1.429 17.5 3.374 34.939 13.559 49.239s25.099 24.542 42.104 28.911c17.005 4.369 35.007 2.586 50.823-5.033l146.632 144.151 35.231-35.231zM154.724 409.585h84.357v-49.623h-85.349c0 9.677-1.241 19.108-1.241 29.030s0.497 13.645 0.993 20.593h1.241zM275.801 657.694l61.034-61.035-36.472-34.239-61.283 60.787c10.999 12.549 22.854 24.321 35.48 35.231l1.241-0.744zM536.812 660.423h-49.623v86.838h24.811c9.18 0 17.367 0 24.812-1.241v-85.597zM871.511 388.746c0-9.677 0-19.604-1.244-29.030h-87.332v49.623h87.583c0.497-6.702 0.993-13.65 0.993-20.593v0z" />
<glyph unicode="&#xe90b;" glyph-name="delete" d="M512.025 960c45.978 0 90.197-16.829 123.512-47.007s53.175-71.395 55.473-115.126l0.224-8.533h224.016c11.418-0.012 22.4-4.176 30.703-11.641s13.303-17.669 13.969-28.525c0.666-10.856-3.038-21.546-10.368-29.885s-17.724-13.699-29.065-14.983l-5.239-0.299h-38.042l-52.867-620.928c-3.411-40.064-22.533-77.44-53.565-104.695-31.031-27.247-71.696-42.377-113.907-42.377h-289.693c-42.211 0-82.876 15.13-113.907 42.377-31.031 27.255-50.154 64.631-53.565 104.695l-52.912 620.928h-37.992c-10.974 0.002-21.565 3.838-29.766 10.783s-13.439 16.513-14.723 26.892l-0.314 4.992c0.001 10.451 4.030 20.537 11.322 28.347s17.34 12.798 28.238 14.021l5.242 0.299h224.012c0 45.263 18.882 88.673 52.489 120.68s79.192 49.987 126.721 49.987zM411.22 565.333c-8.12 0-15.965-2.801-22.085-7.883s-10.099-12.104-11.203-19.765l-0.314-4.352v-341.333l0.314-4.352c1.107-7.66 5.088-14.678 11.207-19.759s13.963-7.879 22.082-7.879c8.118 0 15.962 2.799 22.081 7.879s10.1 12.099 11.207 19.759l0.314 4.352v341.333l-0.314 4.352c-1.104 7.661-5.084 14.682-11.203 19.765s-13.965 7.883-22.084 7.883zM612.831 565.333c-8.12 0-15.965-2.801-22.085-7.883s-10.099-12.104-11.203-19.765l-0.314-4.352v-341.333l0.314-4.352c1.107-7.66 5.088-14.678 11.207-19.759s13.963-7.879 22.082-7.879c8.118 0 15.962 2.799 22.081 7.879s10.1 12.099 11.207 19.759l0.314 4.352v341.333l-0.314 4.352c-1.104 7.661-5.084 14.682-11.203 19.765s-13.965 7.883-22.084 7.883zM512.025 874.667c-22.607 0.007-44.38-8.124-60.956-22.763s-26.729-34.703-28.425-56.171l-0.224-6.4h179.21l-0.224 6.4c-1.696 21.468-11.849 41.533-28.425 56.171s-38.35 22.769-60.956 22.763z" />
<glyph unicode="&#xe90c;" glyph-name="download" d="M192.012 222.915c-15.529-4.961-26.682-14.618-33.458-28.969-3.9-8.264-4.364-10.716-4.826-25.513-0.387-12.38 0.063-18.381 1.846-24.612 4.752-16.599 16.616-29.665 32.286-35.553l7.758-2.913h316.369c314.627 0 316.409 0.015 323.976 2.857 15.898 5.975 26.752 17.592 31.857 34.089 2.463 7.967 2.862 12.221 2.432 26.015-0.466 14.93-0.927 17.352-4.833 25.631-5.612 11.863-13.937 20.28-25.533 25.795l-9.324 4.434-316.472 0.266c-252.918 0.21-317.6-0.097-322.077-1.526zM462.125 753.746c-10.389-3.999-19.276-13.121-22.732-23.331-1.157-3.419-1.617-81.551-1.617-145.711v-89.73l-45.41-0.408c-43.345-0.388-45.586-0.539-49.276-3.306-9.198-6.9-12.62-17.868-8.539-27.376 2.396-5.587 159.8-171.586 166.714-175.82 5.789-3.548 15.665-3.548 21.456 0 6.917 4.234 164.321 170.233 166.712 175.82 4.081 9.507 0.66 20.475-8.535 27.376-3.692 2.767-5.934 2.918-49.249 3.306l-45.379 0.406-0.379 91.698c-0.425 102.364 0.164 147.506-10.419 158.131-10.040 10.084-9.82 10.047-62.080 10.35-33.561 0.196-48.151-0.205-51.268-1.406z" />
<glyph unicode="&#xe90d;" glyph-name="eva_arrow-ios-back-fill" d="M588.488 155.451c-6.244-0.022-12.414 1.353-18.055 4.030s-10.612 6.583-14.546 11.432l-201.874 250.775c-6.148 7.479-9.509 16.859-9.509 26.541s3.361 19.062 9.509 26.541l208.979 250.775c7.094 8.535 17.289 13.903 28.341 14.922s22.056-2.394 30.591-9.489c8.536-7.094 13.903-17.289 14.922-28.341s-2.394-22.056-9.488-30.591l-186.828-224.026 180.558-224.026c5.111-6.137 8.358-13.605 9.356-21.526s-0.294-15.967-3.724-23.179c-3.43-7.212-8.853-13.29-15.628-17.51-6.776-4.228-14.62-6.422-22.604-6.327z" />
<glyph unicode="&#xe90e;" glyph-name="fingerprint" d="M134.982 960h754.036v-1024h-754.036v1024z" />
<glyph unicode="&#xe90f;" glyph-name="franchise-management" d="M337.692 722.196l-169.341-84.805 688.307-0.16-168.479 84.231c-128.143 64.063-169.994 84.386-174.812 84.883-6.073 0.627-13.3-2.835-175.675-84.149zM154.502 591.363c1.474-6.29 9.153-24.243 14.228-33.264 10.352-18.4 27.918-40.211 35.61-44.216 5.085-2.648 11.533-2.704 307.66-2.704 296.125 0 302.577 0.056 307.661 2.704 7.69 4.004 25.257 25.816 35.61 44.216 5.074 9.021 12.754 26.974 14.228 33.264l0.901 3.851h-716.8l0.902-3.851zM237.641 342.405v-126.751h127.381v253.507h-127.381v-126.756zM449.009 342.405v-126.751h125.982v253.507h-125.982v-126.756zM658.98 342.405v-126.751h127.38v253.507h-127.38v-126.756zM192.877 172.078c-1.909-0.768-4.683-2.463-6.166-3.768-5.959-5.253-19.397-25.047-26.153-38.518-6.235-12.426-7.085-15.119-6.557-20.756 0.731-7.793 4.903-14.085 11.384-17.162 4.379-2.079 34.149-2.273 346.851-2.273 330.399 0 342.226 0.087 346.936 2.596 5.985 3.19 11.121 11.771 11.151 18.637 0.051 10.644-23.849 50.565-35.425 59.167l-3.953 2.934-317.297 0.266c-207.343 0.174-318.504-0.215-320.772-1.121z" />
<glyph unicode="&#xe910;" glyph-name="Hamburger-Menu" d="M42.667 149.333h938.667v119.467h-938.667v-119.467zM42.667 746.667v-119.467h938.667v119.467h-938.667zM42.667 388.267h938.667v119.467h-938.667v-119.467z" />
<glyph unicode="&#xe911;" glyph-name="limit" d="M168.72 701.017c-7.728-3.601-62.189-58.028-64.706-64.667-2.536-6.686-2.084-13.302 1.363-19.964 3.292-6.363 56.045-59.449 62.286-62.679 8.954-4.636 24.705-0.967 29.903 6.966 7.605 11.606 5.924 22.897-5.173 34.76l-7.309 7.813h653.827l-7.306-7.813c-11.095-11.864-12.78-23.154-5.171-34.76 5.197-7.933 20.946-11.602 29.901-6.966 6.241 3.23 58.998 56.315 62.285 62.679 3.451 6.662 3.901 13.278 1.367 19.964-2.693 7.096-57.037 61.12-65.213 64.831-13.23 6-28.262-1.306-32.108-15.605-2.442-9.064 0.036-16.445 8.796-26.187l7.311-8.131h-653.546l7.328 8.151c11.063 12.305 12.564 22.895 4.902 34.589-2.756 4.208-13.845 10.002-19.135 10.002-1.76 0-6.082-1.342-9.603-2.983zM255.14 515.831c-19.136-3.452-32.049-7.703-49.706-16.362-84.86-41.621-124.396-140.911-91.297-229.287 19.158-51.149 62.911-93.158 114.617-110.044 28.813-9.411 11.321-8.801 271.242-9.426 164.999-0.394 243.754-0.031 255.653 1.178 69.965 7.122 129.751 52.987 154.209 118.292 33.085 88.33-6.477 187.687-91.295 229.287-18.109 8.881-30.751 12.96-51.113 16.492-20.634 3.579-492.414 3.459-512.312-0.13zM338.424 419.968c29.104-7.429 52.517-28.662 63.047-57.175l1.624-4.403h213.743c178.621 0 214.615-0.364 219.049-2.217 8.141-3.4 12.995-11.346 12.995-21.274 0-8.95-2.934-14.382-11.023-20.419-4.403-3.292-5.079-3.302-220.349-3.717-170.462-0.328-215.933-0.835-215.935-2.401-0.002-4.265-9.5-21.642-16.522-30.228-13.411-16.399-33.502-27.121-57.055-30.454-36.964-5.228-77.106 18.627-91.008 54.077l-3.065 7.823-21.688 0.799c-23.484 0.865-26.395 1.884-33.812 11.817-4.806 6.436-4.545 19.246 0.539 26.373 5.837 8.182 11.601 9.82 34.568 9.82 17.737 0 20.214 0.328 21.015 2.801 9.12 28.134 34.877 51.973 63.73 58.982 11.345 2.755 28.914 2.668 40.151-0.205zM301.486 370.708c-13.054-6.246-21.182-17.818-22.676-32.287-2.405-23.311 15.714-43.023 39.545-43.023 32.382 0 50.959 36.577 31.923 62.853-10.639 14.689-32.473 20.26-48.792 12.457z" />
<glyph unicode="&#xe912;" glyph-name="notification" horiz-adv-x="878" d="M429.114-44.505c-38.522 0-76.069 14.141-105.326 39.497s-48.274 60.465-54.126 98.499l-0.975 8.29h-229.669c-7.314 0-14.141 1.95-19.992 5.364s-11.215 8.777-14.141 15.116c-3.413 6.339-4.876 13.166-4.389 20.48 0 7.314 2.438 14.141 6.339 19.505l91.185 136.533v232.105c0 149.211 100.45 280.381 243.81 319.878l4.876 1.463 1.95 4.389c6.339 16.091 17.554 30.232 32.183 39.985s31.695 15.116 49.25 15.116c17.554 0 34.621-5.364 49.25-15.116s25.845-23.406 32.184-39.985l1.95-4.389 4.876-1.463c69.73-19.017 132.145-61.44 176.030-118.979s67.779-128.731 67.779-200.899v-232.105l91.185-136.533c3.901-5.851 6.339-12.678 6.339-19.992 0-6.827-1.463-14.141-4.389-20.48-3.413-6.339-8.29-11.703-14.141-15.116s-13.166-5.364-19.992-5.364h-229.669l-0.975-8.29c-5.364-38.522-24.869-73.143-54.126-98.499s-66.805-39.497-105.327-39.497l-1.95 0.488zM351.094 88.615c5.851-16.091 16.091-30.232 30.232-39.985s30.72-15.116 47.787-15.116c17.067 0 33.646 5.364 47.787 15.116s24.382 23.893 30.233 39.985l4.389 13.166h-165.791l4.389-13.166h0.975zM429.114 784.446c-67.779 0-131.657-26.331-179.444-74.118s-74.118-111.665-74.118-179.444v-243.808c0-7.802-2.438-15.116-6.339-21.455l-57.051-85.821h633.906l-57.051 85.821c-4.389 6.339-6.339 14.141-6.339 21.455v243.808c0 67.779-26.331 131.17-74.118 179.444-47.787 47.787-111.665 74.118-179.445 74.118z" />
<glyph unicode="&#xe913;" glyph-name="Bulk-upload" horiz-adv-x="1170" d="M298.666 601.98c7.393-29.381-10.431-59.192-39.812-66.585-33.154-8.343-62.121-28.505-81.458-56.699s-27.713-62.478-23.555-96.412c4.158-33.934 20.565-65.181 46.137-87.872 25.558-22.677 58.511-35.247 92.677-35.352h48.677c30.297 0 54.857-24.561 54.857-54.853 0-30.303-24.56-54.857-54.857-54.857h-48.907c-60.924 0.161-119.693 22.557-165.265 62.998-45.572 40.434-74.809 96.119-82.219 156.592s7.516 121.569 41.976 171.813c34.46 50.243 86.080 86.173 145.163 101.040 29.381 7.393 59.192-10.431 66.585-39.812zM608.911 497.468c-0.514 0.247-1.033 0.487-1.556 0.719-2.389 1.060-4.833 1.938-7.311 2.635-4.883 1.376-9.9 2.054-14.902 2.050-4.687 0.003-9.387-0.592-13.977-1.798-2.030-0.533-4.037-1.186-6.014-1.96-1.284-0.502-2.544-1.052-3.779-1.646-4.018-1.928-7.836-4.364-11.35-7.298l-121.055-96.844c-23.658-18.926-27.494-53.447-8.567-77.105s53.447-27.494 77.105-8.567l32.779 26.223v-324.719c0-30.296 24.56-54.857 54.857-54.857s54.857 24.561 54.857 54.857v324.719l32.778-26.223c23.658-18.926 58.179-15.091 77.104 8.567 18.929 23.658 15.089 58.179-8.565 77.105l-121.057 96.845c-3.514 2.934-7.33 5.369-11.349 7.297zM453.599 937.164c80.645 14.791 163.898-1.637 232.88-45.952 68.984-44.315 118.531-113.202 138.609-192.698 7.417-29.374-10.379-59.2-39.753-66.619s-59.203 10.38-66.621 39.755c-13.257 52.497-45.98 97.988-91.535 127.253s-100.533 40.113-153.789 30.346c-53.257-9.767-100.807-39.42-133.011-82.945-31.855-43.053-46.339-96.495-40.615-149.702 0.173-0.892 0.428-2.172 0.767-3.765 0.773-3.637 1.941-8.722 3.49-14.387 3.466-12.679 7.473-23.093 10.668-28.197 16.075-25.68 8.289-59.53-17.39-75.606s-59.53-8.29-75.606 17.39c-12.068 19.277-19.422 42.557-23.502 57.477-2.224 8.135-3.874 15.325-4.977 20.514-0.555 2.611-0.98 4.758-1.277 6.314l-0.353 1.887-0.106 0.589-0.036 0.202-0.013 0.077c-0.177 1.017-0.334 2.089-0.453 3.12-9.441 81.445 12.439 163.433 61.206 229.345s120.772 110.812 201.417 125.603zM759.106 738.436c41.011 9.84 83.639 10.883 125.082 3.060s80.757-24.333 115.354-48.445c34.604-24.112 63.707-55.279 85.394-91.449s35.474-76.524 40.441-118.404c4.966-41.88 1.009-84.338-11.615-124.578-12.617-40.241-33.624-77.352-61.623-108.891-27.999-31.536-62.362-56.793-100.82-74.091-38.466-17.306-80.15-26.266-122.324-26.295-30.296-0.022-54.879 24.525-54.894 54.821-0.022 30.298 24.517 54.875 54.813 54.896 26.683 0.018 53.058 5.687 77.392 16.633s46.073 26.921 63.788 46.874c17.715 19.953 30.998 43.431 38.985 68.89s10.489 52.319 7.344 78.815c-3.138 26.495-11.864 52.025-25.578 74.909-13.722 22.883-32.139 42.601-54.023 57.855-21.892 15.255-46.768 25.7-72.989 30.649-25.958 4.901-52.663 4.302-78.373-1.757l-64.003-17.42c-29.233-7.956-59.382 9.291-67.338 38.524s9.291 59.382 38.524 67.339l64.854 17.652c0.534 0.146 1.068 0.282 1.609 0.412z" />
<glyph unicode="&#xe914;" glyph-name="DMT" horiz-adv-x="1152" d="M802.259 927.059l349.741-602.823-192.275-339.295-353.060 606.118 195.594 336zM740.928 960l-349.745-602.824h-391.183l349.744 602.824h391.184zM900.051-48h-704.46l-195.592 337.645h704.461l195.59-337.645z" />
<glyph unicode="&#xe915;" glyph-name="profile" d="M766.293 429.227c29.875 0 58.526-11.866 79.65-32.99s32.99-49.775 32.99-79.65v-37.547c0-148.011-139.674-300.373-375.467-300.373s-375.467 152.363-375.467 300.373v37.547c0 29.875 11.867 58.526 32.992 79.65s49.775 32.99 79.648 32.99h525.653zM766.293 354.133h-525.653c-9.958 0-19.508-3.955-26.549-10.995-7.042-7.044-10.997-16.593-10.997-26.551v-37.547c0-107.985 107.534-225.28 300.373-225.28s300.373 117.295 300.373 225.28v37.547c0 9.958-3.955 19.507-10.995 26.551-7.044 7.040-16.593 10.995-26.551 10.995zM503.467 917.333c54.767 0 107.294-21.757 146.022-60.484s60.484-91.253 60.484-146.022c0-54.769-21.756-107.295-60.484-146.022s-91.255-60.484-146.022-60.484c-54.767 0-107.295 21.756-146.022 60.484s-60.484 91.253-60.484 146.022c0 54.769 21.757 107.295 60.484 146.022s91.255 60.484 146.022 60.484zM503.467 842.24c-34.854 0-68.279-13.845-92.923-38.49s-38.49-58.070-38.49-92.923c0-34.853 13.845-68.279 38.49-92.923s58.069-38.49 92.923-38.49c34.854 0 68.279 13.845 92.924 38.49s38.49 58.070 38.49 92.923c0 34.853-13.845 68.279-38.49 92.923s-58.069 38.49-92.924 38.49z" />
<glyph unicode="&#xe916;" glyph-name="rupee" d="M792.572 645.632c10.24 0 18.772-3.413 25.6-10.24 6.828-6.144 10.24-14.336 10.24-24.576s-3.412-18.773-10.24-25.6c-6.828-6.144-15.36-9.216-25.6-9.216h-71.68c-3.412-51.884-21.504-94.208-54.272-126.976s-76.46-53.248-131.072-61.44c16.384-5.46 31.744-14.336 46.080-26.624 15.020-12.288 30.72-29.012 47.104-50.176l120.832-160.768c8.192-10.924 12.288-21.504 12.288-31.744 0-12.288-5.12-23.212-15.36-32.768-10.24-8.876-22.188-13.312-35.84-13.312-17.748 0-32.428 7.508-44.032 22.528l-161.792 216.064c-18.432 25.26-36.18 42.668-53.248 52.224-16.384 9.556-38.57 14.336-66.56 14.336h-98.304c-16.384 0-29.013 3.756-37.888 11.264-8.192 7.508-12.288 18.092-12.288 31.744s4.096 24.236 12.288 31.744c8.875 7.508 21.504 11.264 37.888 11.264h178.176c93.524 0 144.384 37.548 152.576 112.64h-345.088c-10.24 0-18.773 3.072-25.6 9.216-6.826 6.827-10.24 15.36-10.24 25.6s3.414 18.432 10.24 24.576c6.827 6.827 15.36 10.24 25.6 10.24h339.968c-16.384 57.344-65.536 86.016-147.456 86.016h-192.512c-10.24 0-18.773 3.072-25.6 9.216-6.826 6.827-10.24 15.36-10.24 25.6s3.414 18.432 10.24 24.576c6.827 6.827 15.36 10.24 25.6 10.24h520.192c10.24 0 18.772-3.413 25.6-10.24 6.828-6.144 10.24-14.336 10.24-24.576s-3.412-18.773-10.24-25.6c-6.828-6.144-15.36-9.216-25.6-9.216h-124.928c23.892-20.48 39.936-49.152 48.128-86.016h76.8z" />
<glyph unicode="&#xe917;" glyph-name="wallet2" d="M233.777 752.625c-36.95-7.891-69.818-41.061-77.563-78.273-3.486-16.754-3.486-461.329 0-478.082 5.972-28.698 27.404-56.402 53.633-69.335 24.837-12.247 2.995-11.505 324.215-11.034l287.488 0.42 12.083 5.975c14.556 7.194 23.619 16.451 30.659 31.314l5.064 10.68 0.522 39.572 0.522 39.578h-69.535c-74.537 0-82.335 0.63-103.67 8.412-31.002 11.305-62.249 41.651-73.318 71.204-7.101 18.954-8.684 27.74-8.684 48.297 0 27.781 5.647 47.56 19.727 69.084 14.679 22.437 38.554 41.767 62.275 50.417 21.335 7.781 29.133 8.414 103.67 8.414h69.535l-1.044 79.148-5.064 10.681c-7.040 14.864-16.102 24.123-30.659 31.315l-12.078 5.972-574.437 1.599-6.041 4.608c-11.508 8.778-13.615 24.084-4.89 35.525 8.354 10.953-9.721 10.233 257.080 10.233 273.472 0 251.395-1.069 263.841 12.772 10.153 11.295 12.954 23.242 8.765 37.408-2.591 8.783-15.836 22.029-24.622 24.624-10.307 3.046-493.095 2.543-507.476-0.529zM723.231 445.573c-40.54-10.9-65.623-52.879-55.291-92.539 7.183-27.581 28.493-48.819 56.218-56.044 7.429-1.935 22.088-2.386 77.578-2.386h68.419v153.498l-69.156-0.108c-55.096-0.082-70.902-0.573-77.768-2.422z" />
<glyph unicode="&#xe918;" glyph-name="search-header" d="M471.578 789.333c-79.806 0-156.344-31.703-212.776-88.135s-88.135-132.97-88.135-212.776c0-79.808 31.703-156.348 88.135-212.779s132.97-88.137 212.776-88.137c79.433 0 155.622 31.407 211.977 87.339 0.32 0.337 0.644 0.674 0.973 1.003 0.299 0.299 0.602 0.593 0.909 0.879 55.757 56.329 87.057 132.395 87.057 211.695 0 79.805-31.706 156.344-88.137 212.776s-132.971 88.135-212.779 88.135zM198.461 761.538c72.435 72.435 170.678 113.129 273.116 113.129s200.683-40.694 273.118-113.129c72.435-72.435 113.131-170.678 113.131-273.116 0-88.051-30.067-173.001-84.51-241.126l152.879-153.152c16.649-16.678 16.623-43.695-0.051-60.339-16.678-16.649-43.695-16.623-60.339 0.051l-152.798 153.071c-68.177-54.596-153.25-84.753-241.429-84.753-102.438 0-200.681 40.695-273.116 113.131s-113.129 170.679-113.129 273.118c0 102.438 40.694 200.681 113.129 273.116z" />
<glyph unicode="&#xe919;" glyph-name="settings" d="M924.791 334.315l-65.502 56c3.102 18.999 4.702 38.4 4.702 57.801s-1.6 38.801-4.702 57.801l65.502 56c4.941 4.23 8.478 9.862 10.138 16.15s1.37 12.932-0.836 19.050l-0.9 2.6c-18.035 50.397-45.035 97.117-79.701 137.9l-1.801 2.1c-4.203 4.945-9.809 8.499-16.077 10.195-6.263 1.696-12.898 1.453-19.021-0.695l-81.301-28.9c-29.999 24.6-63.501 44-99.699 57.6l-15.701 85c-1.186 6.396-4.288 12.28-8.896 16.87s-10.505 7.67-16.905 8.83l-2.701 0.5c-52.1 9.4-106.897 9.4-158.997 0l-2.701-0.5c-6.4-1.16-12.297-4.239-16.905-8.83s-7.711-10.474-8.896-16.87l-15.8-85.4c-35.911-13.603-69.353-32.992-99-57.4l-81.9 29.1c-6.124 2.166-12.761 2.417-19.031 0.72s-11.874-5.262-16.070-10.22l-1.8-2.1c-34.625-40.813-61.622-87.524-79.7-137.9l-0.9-2.6c-4.5-12.5-0.8-26.5 9.3-35.2l66.3-56.602c-3.1-18.799-4.6-37.999-4.6-57.097 0-19.2 1.5-38.4 4.6-57.101l-66.3-56.602c-4.94-4.228-8.476-9.86-10.138-16.149s-1.369-12.932 0.838-19.051l0.9-2.598c18.1-50.402 44.9-96.9 79.7-137.903l1.8-2.099c4.206-4.945 9.81-8.499 16.076-10.193 6.266-1.698 12.899-1.455 19.024 0.695l81.9 29.099c29.8-24.499 63.1-43.9 99-57.399l15.8-85.402c1.184-6.396 4.287-12.279 8.896-16.87s10.504-7.667 16.905-8.828l2.701-0.499c52.578-9.451 106.419-9.451 158.997 0l2.701 0.499c6.4 1.161 12.297 4.237 16.905 8.828s7.71 10.475 8.896 16.87l15.701 85.001c36.186 13.564 69.875 33.028 99.699 57.6l81.301-28.898c6.123-2.167 12.762-2.419 19.029-0.721s11.874 5.261 16.068 10.219l1.801 2.099c34.799 41.101 61.602 87.501 79.701 137.903l0.9 2.598c4.497 12.301 0.798 26.3-9.301 34.999zM788.292 494.114c2.5-15.1 3.797-30.596 3.797-46.097s-1.297-31.002-3.797-46.101l-6.601-40.098 74.701-63.902c-11.324-26.091-25.621-50.786-42.603-73.6l-92.8 32.9-31.398-25.801c-23.902-19.601-50.5-34.999-79.3-45.798l-38.101-14.302-17.899-96.998c-28.241-3.2-56.755-3.2-85.001 0l-17.899 97.199-37.8 14.498c-28.5 10.803-55 26.202-78.7 45.7l-31.4 25.903-93.4-33.203c-17 22.903-31.2 47.603-42.6 73.6l75.5 64.503-6.5 40c-2.4 14.899-3.7 30.298-3.7 45.5 0 15.3 1.2 30.601 3.7 45.5l6.5 40-75.5 64.5c11.3 26.1 25.6 50.7 42.6 73.6l93.4-33.2 31.4 25.9c23.7 19.5 50.2 34.9 78.7 45.7l37.898 14.3 17.903 97.2c28.1 3.2 56.798 3.2 85.001 0l17.899-97 38.101-14.3c28.698-10.8 55.398-26.2 79.296-45.8l31.403-25.8 92.8 32.9c16.998-22.9 31.198-47.6 42.598-73.6l-74.701-63.9 6.502-39.902zM511.991 634.016c-97.2 0-176-78.8-176-175.998 0-97.203 78.8-176.004 176-176.004s176 78.801 176 176.004c0 97.198-78.801 175.998-176 175.998zM591.194 378.816c-10.389-10.419-22.733-18.679-36.326-24.307s-28.164-8.516-42.876-8.495c-29.901 0-58.001 11.703-79.198 32.802-10.42 10.389-18.68 22.733-24.31 36.326-5.629 13.589-8.515 28.16-8.492 42.876 0 29.897 11.7 57.997 32.802 79.198 21.197 21.2 49.297 32.8 79.198 32.8s58.001-11.6 79.202-32.8c10.415-10.39 18.675-22.733 24.307-36.327 5.628-13.589 8.512-28.16 8.491-42.871 0-29.901-11.699-58.001-32.798-79.202z" />
<glyph unicode="&#xe91a;" glyph-name="settle" d="M489.147 787.829c0 11.965 2.37 15.161 36.728 49.517 39.88 39.879 48.522 43.984 63.427 30.098 11.822-11.010 9.595-26.587-6.257-43.786-9.073-9.843-11.95-14.934-8.94-15.821 2.437-0.718 17.413-4.424 33.27-8.237 117.893-28.342 216.735-115.765 263.112-232.714 34.017-85.794 34.017-193.74 0-279.556-47.811-120.607-148.849-207.345-275.502-236.513-36.342-8.366-117.325-9.841-152.972-2.775-104.756 20.746-193.375 80.102-252.166 168.904-41.478 62.648-61.785 131.599-61.847 210.002-0.094 123.923 55.736 235.81 154.425 309.477 25.027 18.681 70.12 43.269 93.905 51.204 14.010 4.675 16.546 4.701 25.144 0.253 10.331-5.344 14.784-16.419 11.637-28.954-1.56-6.212-10.376-11.969-41.797-27.299-46.845-22.852-73.101-41.995-106.462-77.616-40.858-43.627-70.302-100.988-82.618-160.943-6.768-32.929-6.768-98.994 0-131.926 12.563-61.153 41.657-117.064 84.835-163.031 134.219-142.889 355.446-142.889 489.667 0 43.807 46.638 72.504 102.272 85.238 165.233 8.392 41.487 5.356 115.457-6.339 154.455-33.848 112.892-114.939 195.836-225.572 230.735-14.843 4.684-27.771 8.514-28.728 8.514-0.963 0 2.038-4.503 6.666-10.002 16.102-19.133 7.229-45.259-15.365-45.259-7.823 0-16.266 6.647-46.52 36.625-34.657 34.334-36.968 37.425-36.968 49.417zM287.87 537.9c36.563 74.55 111.803 128.011 193.905 137.776 47.464 5.646 95.008-2.63 139.025-24.201 52.403-25.683 90.419-63.183 115.133-113.574 19.681-40.126 24.428-61.649 24.428-110.794 0-49.178-4.782-70.84-24.392-110.52-25.114-50.816-63.708-88.924-115.169-113.725-39.076-18.826-66.744-25.242-108.898-25.242-42.2 0-69.876 6.426-108.897 25.283-51.666 24.97-90.534 63.304-115.258 113.684-19.553 39.834-24.302 61.445-24.302 110.52 0 49.145 4.743 70.668 24.425 110.794zM616.084 448.996l10.819 43.667h-43.29c-1.915 12.464-5.617 23.797-11.11 34-0.942 1.776-1.94 3.505-2.995 5.19l46.577-0.189 11.126 44.333h-201.449l-11.886-51.5h57.295c20.114 0 34.743-5.167 43.887-15.5 4.193-4.743 7.429-10.187 9.697-16.333h-99.908l-10.972-43.667h112.436c-1.065-3.782-2.483-7.335-4.244-10.668-4.367-8.33-10.82-14.833-19.353-19.497-8.432-4.557-18.946-6.835-31.543-6.835h-52.724l0.153-36.997 106.667-140.334h63.544v3l-96.307 129.162 1.828 0.671c21.539 3.108 38.957 9.334 52.269 18.668 13.307 9.329 23.060 21.274 29.256 35.83 3.553 8.346 6.083 17.341 7.603 27.001h32.625z" />
<glyph unicode="&#xe91b;" glyph-name="Transaction-report" d="M214.399 795.091c2.161 12.057 14.801 27.414 26.896 32.68 7.205 3.138 41.186 4.019 158.71 4.112l149.54 0.117v-100.793c0-112.462 0.343-114.716 19.738-129.511l11.351-8.663 209.485-1.725-0.804-249.159c-0.794-246.328-0.87-249.247-6.999-257.454-3.41-4.567-9.933-11.090-14.495-14.495-8.233-6.149-10.414-6.2-266.367-6.2s-258.132 0.051-266.365 6.2c-4.566 3.405-11.089 9.928-14.497 14.495-6.165 8.253-6.204 10.204-7.064 354.509-0.475 190.411-0.084 350.561 0.872 355.887zM597.642 639.624v96.188c0 52.903 0.343 96.188 0.768 96.188s44.037-43.284 96.922-96.188l96.154-96.188h-193.843zM632.965 374.574l15.15 54.584h-60.611c-2.678 15.58-7.864 29.747-15.549 42.5-1.321 2.219-2.724 4.381-4.198 6.487l65.208-0.237 15.575 55.416h-282.026l-16.64-64.375h80.213c28.16 0 48.64-6.458 61.44-19.375 5.875-5.927 10.401-12.731 13.579-20.417h-139.872l-15.36-54.584h157.411c-1.495-4.726-3.476-9.17-5.944-13.332-6.115-10.414-15.146-18.54-27.094-24.376-11.804-5.693-26.524-8.54-44.16-8.54h-73.813l0.213-46.249 149.334-175.416h88.96v3.748l-134.826 161.459 2.56 0.835c30.151 3.886 54.54 11.663 73.171 23.332s32.287 26.598 40.96 44.79c4.977 10.429 8.52 21.678 10.644 33.751h45.676z" />
<glyph unicode="&#xe91c;" glyph-name="BBPS" d="M763.761 774.279c-11.607 13.817-23.209 27.358-39.24 36.2-25.974 21.002-57.477 28.463-88.98 35.924-34.545 8.29-69.914 7.185-105.006 9.119-48.914 3.040-98.103 2.487-147.291 0-7.737-0.552-17.133 1.382-24.041-4.974-4.698-4.974-3.040-11.33-3.316-17.133 0-34.266 0.553-68.256-0.276-102.522-0.553-16.304 4.421-21.831 21.278-22.107 53.334-0.552 106.391 3.316 159.725-2.763 35.369-3.869 74.885-22.66 80.691-67.703 3.866-29.292-2.488-55.268-16.307-80.415-1.93-4.974-10.225-9.672 0-14.646l97.275-29.016c12.16-6.908 24.591-17.133 38.41-5.527 12.989 11.054 26.527 21.831 33.992 38.135 42.276 62.729 38.963 166.908-7.188 227.427h0.276zM814.884 381.875c-5.801 21.002-19.896 37.028-33.157 53.33-17.684 21.833-40.346 37.584-64.666 50.296-109.706 59.137-236.545 41.45-356.476 43.385-15.199 0-19.067 4.698-19.067 19.344 0.553 94.784 0.276 189.844 0 284.629 0 21.002-3.040 24.041-23.765 24.041-46.978 0-93.679 0-140.657 0-22.936 0-23.213-0.276-23.213-23.489 0-256.442 0-512.607 0-769.053 0-6.354-1.658-13.261 3.040-19.067 5.804-8.842 14.923-6.354 22.937-6.63 120.76 0 241.244-0.829 362.005 0.553 98.652 0 209.188 28.462 264.73 118.272 38.963 68.255 43.94 153.646 8.013 224.113l0.276 0.276zM652.954 255.309c-9.395-40.069-44.493-65.766-90.086-69.084-10.225-4.972-21.279-3.589-31.78-3.589-59.966-0.276-120.208 0-180.174-0.276-12.711 0-16.581 4.142-16.304 16.579 0.553 63.007 0.553 126.008 0 189.292 0 11.884 3.040 17.684 16.028 17.684 66.045-1.106 132.090 2.212 198.135-1.935 27.909-1.93 54.441-8.566 75.715-28.739 33.715-23.485 38.139-82.898 28.744-119.378l-0.276-0.553z" />
<glyph unicode="&#xe91e;" glyph-name="wallet-copy" d="M233.777 752.625c-36.95-7.891-69.818-41.061-77.563-78.273-3.486-16.754-3.486-461.329 0-478.082 5.972-28.698 27.404-56.402 53.633-69.335 3.309-1.633 5.789-3.031 8.362-4.234 16.743-7.818 37.424-7.209 315.853-6.799l287.488 0.42 12.083 5.975c14.556 7.194 23.619 16.451 30.659 31.314l5.064 10.68 0.522 39.572 0.522 39.578v255.828l-1.044 79.148-5.064 10.681c-7.040 14.864-16.102 24.123-30.659 31.315l-12.078 5.972-574.437 1.599-6.041 4.608c-11.508 8.778-13.615 24.084-4.89 35.525 1.047 1.372 1.679 2.561 2.508 3.591 5.789 7.193 21.198 6.642 254.573 6.642 233.884 0 251.594-0.781 259.602 7.65 1.357 1.427 2.437 3.118 4.239 5.122 10.153 11.295 12.954 23.242 8.765 37.408-2.591 8.783-15.836 22.029-24.622 24.624-10.307 3.046-493.095 2.543-507.476-0.529zM383.244 541.082c10.062 9.772 34.758 24.323 54.199 31.933 8.551 3.347 14.582 3.802 21.081 1.588 3.105-1.058 6.424-3.603 13.68-10.492 14.349-13.621 23.161-17.511 39.756-17.549 16.584-0.038 25.79 4.050 39.849 17.702 9.713 9.434 14.060 11.736 22.154 11.736 11.075 0 41.836-15.315 61.558-30.648 9.477-7.37 11.704-9.744 13.988-14.902 2.949-6.671 3.057-11.882 0.41-19.796-3.036-9.073-3.784-22.132-1.766-30.751 4.198-17.917 17.546-32.584 34.985-38.436 3.502-1.178 6.902-2.14 7.557-2.14 3.123 0 10.179-2.852 13.701-5.54 7.839-5.99 11.116-17.623 12.268-43.571 0.804-18.074-2.012-42.793-5.699-50.012-0.881-1.731-3.584-4.925-6.011-7.107-4.485-4.029-5.304-4.362-19.154-7.7-19.707-4.756-34.77-19.901-39.409-39.624-2.053-8.75-1.219-20.613 2.212-31.375 3.087-9.687 3.077-13.65-0.046-20.91-2.483-5.77-9.948-12.549-24.566-22.298-11.515-7.685-30.003-17.336-38.405-20.050-10.639-3.436-20.859 0.092-29.025 10.020-16.876 20.516-43.628 26.010-67.066 13.773-5.918-3.092-9.799-6.533-20.671-18.33-5.326-5.78-9.459-7.798-16.913-8.248-4.517-0.276-6.987 0.072-11.105 1.556-26.572 9.59-59.636 30.971-64.966 42.010-3.803 7.875-3.781 11.617 0.137 23.347 4.187 12.539 4.974 19.651 3.246 29.363-1.828 10.276-6.568 19.676-13.767 27.31-9.166 9.718-17.8 14.141-32.644 16.732-10.736 1.874-18.019 6.958-21.381 14.925-5 11.853-5.708 49.311-1.371 72.668 2.879 15.508 9.986 22.548 25.082 24.842 20.546 3.123 36.271 16.158 43.37 35.946 1.953 5.447 2.247 7.607 2.249 16.516 0.003 9.020-0.291 11.122-2.442 17.511-4.283 12.725-2.655 22.639 4.925 30.001zM569.226 419.118c-9.626 14.74-23.25 24.474-41.027 29.306-6.661 1.811-21.352 2.221-28.627 0.798-28.141-5.502-49.288-26.76-54.74-55.028-4.117-21.335 3.14-44.411 18.934-60.206 26.576-26.578 69.348-26.762 95.997-0.415 23.066 22.799 27.028 58.634 9.462 85.545z" />
<glyph unicode="&#xe91f;" glyph-name="wallet" d="M233.777 752.625c-36.95-7.891-69.818-41.061-77.563-78.273-3.486-16.754-3.486-461.329 0-478.082 5.972-28.698 27.404-56.402 53.633-69.335 3.309-1.633 5.789-3.031 8.362-4.234 16.743-7.818 37.424-7.209 315.853-6.799l287.488 0.42 12.083 5.975c14.556 7.194 23.619 16.451 30.659 31.314l5.064 10.68 0.522 39.572 0.522 39.578v255.828l-1.044 79.148-5.064 10.681c-7.040 14.864-16.102 24.123-30.659 31.315l-12.078 5.972-574.437 1.599-6.041 4.608c-11.508 8.778-13.615 24.084-4.89 35.525 1.047 1.372 1.679 2.561 2.508 3.591 5.789 7.193 21.198 6.642 254.573 6.642 233.884 0 251.594-0.781 259.602 7.65 1.357 1.427 2.437 3.118 4.239 5.122 10.153 11.295 12.954 23.242 8.765 37.408-2.591 8.783-15.836 22.029-24.622 24.624-10.307 3.046-493.095 2.543-507.476-0.529zM383.244 541.082c10.062 9.772 34.758 24.323 54.199 31.933 8.551 3.347 14.582 3.802 21.081 1.588 3.105-1.058 6.424-3.603 13.68-10.492 14.349-13.621 23.161-17.511 39.756-17.549 16.584-0.038 25.79 4.050 39.849 17.702 9.713 9.434 14.060 11.736 22.154 11.736 11.075 0 41.836-15.315 61.558-30.648 9.477-7.37 11.704-9.744 13.988-14.902 2.949-6.671 3.057-11.882 0.41-19.796-3.036-9.073-3.784-22.132-1.766-30.751 4.198-17.917 17.546-32.584 34.985-38.436 3.502-1.178 6.902-2.14 7.557-2.14 3.123 0 10.179-2.852 13.701-5.54 7.839-5.99 11.116-17.623 12.268-43.571 0.804-18.074-2.012-42.793-5.699-50.012-0.881-1.731-3.584-4.925-6.011-7.107-4.485-4.029-5.304-4.362-19.154-7.7-19.707-4.756-34.77-19.901-39.409-39.624-2.053-8.75-1.219-20.613 2.212-31.375 3.087-9.687 3.077-13.65-0.046-20.91-2.483-5.77-9.948-12.549-24.566-22.298-11.515-7.685-30.003-17.336-38.405-20.050-10.639-3.436-20.859 0.092-29.025 10.020-16.876 20.516-43.628 26.010-67.066 13.773-5.918-3.092-9.799-6.533-20.671-18.33-5.326-5.78-9.459-7.798-16.913-8.248-4.517-0.276-6.987 0.072-11.105 1.556-26.572 9.59-59.636 30.971-64.966 42.010-3.803 7.875-3.781 11.617 0.137 23.347 4.187 12.539 4.974 19.651 3.246 29.363-1.828 10.276-6.568 19.676-13.767 27.31-9.166 9.718-17.8 14.141-32.644 16.732-10.736 1.874-18.019 6.958-21.381 14.925-5 11.853-5.708 49.311-1.371 72.668 2.879 15.508 9.986 22.548 25.082 24.842 20.546 3.123 36.271 16.158 43.37 35.946 1.953 5.447 2.247 7.607 2.249 16.516 0.003 9.020-0.291 11.122-2.442 17.511-4.283 12.725-2.655 22.639 4.925 30.001zM569.226 419.118c-9.626 14.74-23.25 24.474-41.027 29.306-6.661 1.811-21.352 2.221-28.627 0.798-28.141-5.502-49.288-26.76-54.74-55.028-4.117-21.335 3.14-44.411 18.934-60.206 26.576-26.578 69.348-26.762 95.997-0.415 23.066 22.799 27.028 58.634 9.462 85.545z" />
<glyph unicode="&#xe920;" glyph-name="xlsheet" d="M320 789.334v-128h-153.6c-21.206 0-38.4-19.094-38.4-42.667v-341.331c0-23.572 17.194-42.67 38.4-42.67h153.6v-128c0-23.572 17.194-42.665 38.4-42.665h499.2c21.207 0 38.4 19.092 38.4 42.665v682.669c0 23.573-17.193 42.666-38.4 42.666h-499.2c-21.206 0-38.4-19.094-38.4-42.666zM597.335 661.334h-234.669v128h234.669v-128zM640 789.334h213.335v-128h-213.335v128zM597.335 618.666v-149.333h-85.335v149.333h85.335zM640 469.334v149.333h213.335v-149.333h-213.335zM597.335 426.665v-149.33h-85.335v149.33h85.335zM640 277.335v149.33h213.335v-149.33h-213.335zM597.335 234.665v-128h-234.669v128h234.669zM640 106.665v128h213.335v-128h-213.335zM469.334 618.666v-341.331h-302.934v341.331h302.934zM239.488 554.666l55.914-106.282-61.312-107.049h45.824l40.32 83.84 40.512-83.84h45.163l-60.31 106.665 58.944 106.666h-42.794l-39.275-80.085-37.184 80.085h-45.802z" />
<glyph unicode="&#xe921;" glyph-name="eye-view" horiz-adv-x="1088" d="M198.532 448c2.851 4.89 6.25 10.509 10.198 16.704 14.956 23.469 37.5 54.735 67.715 85.865 60.594 62.431 148.96 121.431 267.556 121.431 118.598 0 206.963-59 267.558-121.431 30.214-31.13 52.755-62.396 67.712-85.865 3.949-6.195 7.347-11.814 10.195-16.704-2.848-4.89-6.246-10.509-10.195-16.704-14.957-23.469-37.498-54.735-67.712-85.865-60.595-62.429-148.96-121.431-267.558-121.431-118.596 0-206.962 59.002-267.556 121.431-30.214 31.13-52.759 62.396-67.715 85.865-3.948 6.195-7.347 11.814-10.198 16.704zM944 448c43.43 20.438 43.424 20.457 43.411 20.476l-0.204 0.44-0.422 0.87c-0.346 0.708-0.819 1.67-1.421 2.868-1.21 2.396-2.938 5.743-5.197 9.905-4.506 8.317-11.136 19.927-19.936 33.735-17.542 27.531-44 64.265-79.789 101.135-71.405 73.569-183.040 150.569-336.442 150.569-153.404 0-265.038-77-336.444-150.569-35.786-36.87-62.241-73.604-79.785-101.135-8.799-13.808-15.432-25.418-19.939-33.735-2.256-4.162-3.985-7.509-5.193-9.905-0.604-1.199-1.078-2.161-1.423-2.868l-0.42-0.87-0.138-0.289-0.051-0.107c-0.009-0.019-0.038-0.082 43.393-20.52l-43.431 20.438c-6.092-12.945-6.092-27.932 0-40.877l43.431 20.438c-43.431-20.438-43.441-20.419-43.431-20.438l0.038-0.082 0.051-0.107 0.138-0.289 0.42-0.87c0.345-0.708 0.819-1.67 1.423-2.868 1.208-2.396 2.937-5.743 5.193-9.905 4.508-8.317 11.14-19.927 19.939-33.735 17.544-27.531 43.999-64.268 79.785-101.138 71.406-73.568 183.040-150.566 336.444-150.566 153.402 0 265.037 76.998 336.442 150.566 35.789 36.87 62.246 73.607 79.789 101.138 8.8 13.808 15.43 25.418 19.936 33.735 2.259 4.162 3.987 7.509 5.197 9.905 0.602 1.199 1.075 2.161 1.421 2.868l0.422 0.87 0.134 0.289 0.051 0.107c0.013 0.019 0.038 0.082-43.392 20.52zM944 448l43.411 20.476c6.093-12.945 6.112-27.97 0.019-40.915l-43.43 20.438zM187.392 468.522c-0.009 0.018-0.007 0.013 0 0zM187.389 427.471c-0.006-0.013-0.009-0.018 0 0zM544 368c44.183 0 80 35.817 80 80s-35.817 80-80 80c-44.183 0-80-35.817-80-80s35.817-80 80-80zM544 480c-17.673 0-32-14.327-32-32s14.327-32 32-32c17.673 0 32 14.327 32 32s-14.327 32-32 32zM416 448c0 70.692 57.308 128 128 128s128-57.308 128-128c0-70.692-57.308-128-128-128s-128 57.308-128 128z" />
<glyph unicode="&#xe922;" glyph-name="home" d="M897.050 453.873l-344.929 344.677c-2.483 2.488-5.432 4.463-8.678 5.81s-6.728 2.040-10.245 2.040c-3.517 0-6.999-0.693-10.245-2.040s-6.195-3.321-8.678-5.81l-344.93-344.677c-10.049-10.051-15.743-23.7-15.743-37.934 0-29.563 24.034-53.596 53.594-53.596h36.343v-245.944c0-14.822 11.975-26.798 26.797-26.798h209.268v187.581h93.791v-187.581h222.664c14.822 0 26.798 11.976 26.798 26.798v245.944h36.342c14.239 0 27.889 5.612 37.939 15.744 20.849 20.936 20.849 54.851-0.087 75.786z" />
<glyph unicode="&#xe923;" glyph-name="vertical-line" d="M341.332 490.7h341.333c23.564 0 42.667-19.103 42.667-42.667v0c0-23.564-19.103-42.667-42.667-42.667h-341.333c-23.564 0-42.667 19.103-42.667 42.667v0c0 23.564 19.103 42.667 42.667 42.667z" />
</font>
</defs>
</svg>
